<?xml version="1.0" encoding="utf-8"?><svg version="1.1" id="Layer_1" xmlns="http://www.w3.org/2000/svg" xmlns:xlink="http://www.w3.org/1999/xlink" x="0px" y="0px" viewBox="0 0 108.24 122.88" style="enable-background:new 0 0 108.24 122.88" xml:space="preserve"><style type="text/css"><![CDATA[
	.st0{fill-rule:evenodd;clip-rule:evenodd;}
]]></style><g><path class="st0" d="M54.12,0c5.65,0,10.45,7.29,13.65,19.07c1.11,4.09,2.06,8.76,2.81,13.87c4.8-1.9,9.32-3.41,13.41-4.5 c11.79-3.12,20.5-2.6,23.33,2.29c2.82,4.89-1.09,12.69-9.69,21.34c-2.98,3-6.55,6.16-10.61,9.37c1.62,1.28,3.17,2.56,4.63,3.82 c-1.33,0.93-2.42,2.16-3.18,3.6c-1.68-1.45-3.48-2.92-5.38-4.41c-0.39,0.29-0.79,0.58-1.19,0.88c-0.86,6.19-3.74,11.73-7.95,15.94 l-0.24,0.22c-0.74,0.72-1.51,1.4-2.32,2.03c-0.05,0.5-0.11,1-0.17,1.5c5.03,2.04,9.75,3.64,13.99,4.76 c9.61,2.54,16.34,2.73,17.94-0.03c0.85-1.47,0.25-3.78-1.54-6.68c1.45-0.63,2.73-1.59,3.75-2.78c2.89,4.73,3.7,8.84,1.96,11.85 C104.5,97.04,95.8,97.56,84,94.44c-4.09-1.08-8.61-2.6-13.42-4.5c-0.75,5.11-1.7,9.78-2.81,13.87c-3.2,11.78-8,19.07-13.65,19.07 s-10.45-7.29-13.65-19.07c-1.11-4.09-2.06-8.76-2.81-13.87c-1.74,0.69-3.44,1.33-5.09,1.91c-0.13-1.67-0.66-3.22-1.49-4.57 c1.92-0.68,3.9-1.43,5.94-2.26c-0.06-0.49-0.11-0.99-0.17-1.49c-0.89-0.7-1.74-1.45-2.54-2.25l-0.02-0.02 c-4.21-4.21-7.09-9.75-7.95-15.94c-0.4-0.29-0.8-0.59-1.19-0.88c-4.29,3.34-8.04,6.63-11.13,9.74C7,81.26,3.47,87,5.07,89.77 c0.89,1.54,3.37,2.16,7.05,1.97c-0.03,0.3-0.04,0.61-0.04,0.92c0,1.31,0.25,2.56,0.69,3.71C6.9,96.63,2.71,95.29,0.91,92.17 C-1.91,87.27,2,79.47,10.6,70.82c2.99-3,6.55-6.16,10.61-9.37c-4.05-3.21-7.62-6.37-10.61-9.37C2,43.43-1.91,35.63,0.91,30.74 c2.83-4.89,11.53-5.41,23.33-2.29c4.09,1.08,8.61,2.59,13.42,4.5c0.27-1.85,0.57-3.64,0.89-5.36c1.39,0.7,2.95,1.09,4.61,1.09h0.09 c-0.37,1.97-0.7,4.04-1,6.18c0.45,0.19,0.89,0.39,1.34,0.59c3.25-1.32,6.8-2.05,10.52-2.05c3.72,0,7.28,0.73,10.53,2.04 c0.44-0.2,0.89-0.39,1.33-0.58c-0.75-5.39-1.72-10.28-2.87-14.51c-2.6-9.58-5.8-15.51-8.99-15.51c-1.77,0-3.55,1.83-5.22,5.09 c-1.29-0.87-2.78-1.46-4.4-1.67C47.22,2.99,50.49,0,54.12,0L54.12,0L54.12,0z M54.12,45.2c7.06,0,12.79,2.68,12.79,5.98 c0,3.31-5.73,5.98-12.79,5.98c-7.06,0-12.79-2.68-12.79-5.98S47.06,45.2,54.12,45.2L54.12,45.2L54.12,45.2z M41.33,67.64v4.59 c2.28,8.08,24.75,6.52,25.58-0.41v-4.59C65.79,74.84,43.13,75.39,41.33,67.64L41.33,67.64L41.33,67.64L41.33,67.64z M41.27,54.06 v4.49c2.28,7.89,24.88,6.83,25.71,0.06v-4.48C65.85,61.56,43.07,61.63,41.27,54.06L41.27,54.06L41.27,54.06z M41.27,60.67v4.59 c2.28,8.08,24.88,6.99,25.71,0.06v-4.59C65.85,68.34,43.07,68.42,41.27,60.67L41.27,60.67L41.27,60.67z M54.12,37.41 c13.27,0,24.03,10.76,24.03,24.03S67.39,85.47,54.12,85.47S30.09,74.71,30.09,61.44S40.85,37.41,54.12,37.41L54.12,37.41z M71.39,39.34c0.9,0.7,1.76,1.46,2.56,2.27c4.21,4.21,7.09,9.76,7.95,15.95c0.4,0.29,0.8,0.58,1.19,0.88 c4.29-3.34,8.04-6.63,11.13-9.74c7-7.05,10.53-12.79,8.94-15.56c-1.6-2.76-8.33-2.57-17.94-0.03c-4.24,1.12-8.96,2.72-13.99,4.77 C71.28,38.35,71.34,38.85,71.39,39.34L71.39,39.34z M64.61,87.46c-3.24,1.31-6.78,2.03-10.48,2.03c-3.71,0-7.25-0.72-10.49-2.04 c-0.46,0.2-0.92,0.41-1.38,0.6c0.75,5.39,1.72,10.28,2.87,14.51c2.6,9.58,5.8,15.51,9,15.51c3.19,0,6.4-5.93,8.99-15.51 c1.14-4.23,2.11-9.13,2.86-14.51l0,0C65.52,87.86,65.06,87.66,64.61,87.46L64.61,87.46z M26.35,57.54 c0.86-6.18,3.74-11.73,7.95-15.93l0.24-0.22c0.73-0.71,1.5-1.39,2.3-2.02c0.05-0.5,0.11-1,0.17-1.5 c-5.04-2.04-9.75-3.64-13.99-4.77c-9.61-2.54-16.34-2.73-17.94,0.03C3.47,35.9,7,41.64,14.01,48.69c3.09,3.11,6.84,6.4,11.13,9.74 l0,0C25.54,58.13,25.94,57.84,26.35,57.54L26.35,57.54z M96.8,66.75c3.67,0,6.65,2.98,6.65,6.65s-2.98,6.65-6.65,6.65 s-6.65-2.98-6.65-6.65S93.12,66.75,96.8,66.75L96.8,66.75L96.8,66.75z M22.35,85.8c3.67,0,6.65,2.98,6.65,6.65 s-2.98,6.65-6.65,6.65s-6.65-2.98-6.65-6.65S18.68,85.8,22.35,85.8L22.35,85.8L22.35,85.8z M43.15,11.76 c3.67,0,6.65,2.98,6.65,6.65c0,3.67-2.98,6.65-6.65,6.65c-3.67,0-6.65-2.98-6.65-6.65C36.5,14.74,39.48,11.76,43.15,11.76 L43.15,11.76L43.15,11.76z"/></g></svg>