<svg enable-background="new 0 0 1133.9 1133.9" viewBox="0 0 1133.9 1133.9" xmlns="http://www.w3.org/2000/svg"><path d="m929.1 336.3v.4c-1.1-17.1-2.1-33.1-3.3-47.4l-1.2-16.3-35.3-13.7h.2l-330.8-128.5-365.8 142.2-1.3 16.3c-8.5 109.2-14 309.5 45.1 424.3 93.6 183.3 302.5 280.5 311.5 284.5l10.5 4.8 10.6-4.6c8.9-4.1 217.3-100 311.7-284.7 51.2-99.8 53.9-264.3 48.1-377.3z" fill="#e11b22"/><path d="m833.6 563.8c-4.1 13.1-10.2 25.4-18.1 36.6-14.9 21.9-36.6 39.5-62 50.2-16.9 7.2-35.9 10.9-55 10.9-16.7.1-32.9-3.1-47.3-8.7-14.7-5.4-28-13.2-40.4-22.2-8.2-6-16.1-12.6-22.9-19.5-10.4-9.3-19.2-19.3-28.5-29.5-11.8-13.6-22.8-27.9-33.9-41.8-10.9-13.7-21.7-27-32.1-39.2-10.4-12.1-21.2-23.3-32-32.3-6.9-6.3-13.6-11.3-20.5-15.5-9.4-5.7-18.4-9.5-27.6-11.6-5.5-1.2-10.8-1.8-16.4-1.8-9 0-17.3 1.3-25.4 3.7-7.6 2.5-15.3 6.1-22 10.5-13.6 9-24.5 21.8-30.9 36.8-4 10-6.7 20.8-6.7 32.4 0 8.7 1.7 17.1 4 24.8 2.4 7.6 6 15.1 10.8 21.8 8.8 13.4 22 24 37.2 30.4 10.1 4 21.2 6.4 33 6.4 4.8 0 10-.6 14.9-1.5 4.8-1 9.5-2.6 14.2-4.2 8.6-3.7 17.4-8.8 26.4-15.7l-23.2-22.7 96-7.2-8.2 93.6-24.4-24.1c-6.2 5.1-12.5 9.7-19.1 13.9-14.5 9-30.3 16.2-47.5 20.2-9.4 2.1-19 3.1-29 3.1-14.7 0-28.6-2.2-41.9-6.1-13.1-4.2-25.8-10.1-37.2-17.7-22.3-15-40.4-36.1-51.2-61-6.7-16.6-11-35-11-54.1 0-14.2 2.1-28.3 6.5-41.4 3.9-13 10.2-25.1 17.8-36.3 14.8-22.2 36.7-39.6 62.1-50.4 17.1-6.9 35.6-10.8 55-10.8 16.9-.1 32.9 3.1 47.3 8.7 14.7 5.6 28.1 13.4 40.4 22.3 8.3 5.9 15.9 12.6 23.2 19.6 10.1 9.2 19.2 19.3 28.3 29.5 11.6 13.6 22.9 28 33.9 41.6 10.9 13.8 21.4 27.1 32.1 39.4 10.5 12.3 21.2 23.3 31.7 32.4 7.1 6.1 13.9 11.3 20.9 15.5 9.4 5.8 18.1 9.2 27.4 11.5 5.6 1.2 10.9 1.9 16.5 1.9 8.7 0 17.3-1.4 25.1-3.7 8.1-2.6 15.6-6.1 22.4-10.6 13.5-8.9 24.3-21.8 30.6-36.8 4.3-9.8 6.6-20.6 6.8-32.3 0-8.7-1.7-17-4.1-24.9-2.4-7.6-6-15-10.6-21.7-9.2-13.3-22.1-24-37.3-30.3-10.1-4.1-21.2-6.5-33-6.5-5 0-10.1.5-14.9 1.4-4.9 1.1-9.7 2.5-14.3 4.4-9.5 3.8-18.9 9.7-28.5 17.3-6.7 5-13.2 10.9-19.7 17.3-8.6 8.7-17.4 18.5-25.9 28.9-1.1.9-1.7 2-2.7 2.8-3.8-4.8-7.8-9.7-11.5-14.4l-.6-.8c-7.5-9.6-15.5-19.6-23.6-29.3 9.4-11.3 19.6-22.2 30.4-32.3 11.1-10.2 22.4-19.6 34.8-27.7 14.5-8.9 30.3-16.2 47.5-20.1 9.2-2.1 19-3.1 29-3.1 14.6 0 28.4 2.2 42.2 6.3 13 4 25.7 9.9 36.8 17.5 22.4 15 40.4 36.1 51.2 61.2 7 16.6 11.2 34.8 11.2 54-.1 14-2.3 27.9-6.5 41z" fill="#fff"/></svg>